<?xml version="1.0" encoding="UTF-8" standalone="no"?>
<!DOCTYPE svg PUBLIC "-//W3C//DTD SVG 1.1//EN" "http://www.w3.org/Graphics/SVG/1.1/DTD/svg11.dtd">
<svg width="100%" height="100%" viewBox="0 0 463 28" version="1.1" xmlns="http://www.w3.org/2000/svg" xmlns:xlink="http://www.w3.org/1999/xlink" xml:space="preserve" xmlns:serif="http://www.serif.com/" style="fill-rule:evenodd;clip-rule:evenodd;stroke-linejoin:round;stroke-miterlimit:2;">
    <g transform="matrix(1,0,0,1,-18,-236)">
        <g transform="matrix(1,0,0,1,-129.574,24.9967)">
            <g transform="matrix(32,0,0,32,147.238,236.779)">
                <path d="M0.206,-0.609L1.08,-0.609C1.161,-0.609 1.215,-0.577 1.215,-0.52C1.215,-0.463 1.161,-0.431 1.08,-0.431L0.206,-0.431L0.206,-0.609ZM0.08,-0L0.206,-0L0.206,-0.305L1.08,-0.305C1.237,-0.305 1.341,-0.391 1.341,-0.522C1.341,-0.654 1.237,-0.736 1.08,-0.736L0.08,-0.736L0.08,-0Z" style="fill:rgb(46,53,64);fill-rule:nonzero;"/>
            </g>
            <g transform="matrix(32,0,0,32,191.174,236.779)">
                <path d="M0.206,-0.431L0.206,-0.609L1.08,-0.609C1.161,-0.609 1.215,-0.577 1.215,-0.52C1.215,-0.463 1.161,-0.431 1.08,-0.431L0.206,-0.431ZM1.341,-0.218C1.341,-0.281 1.317,-0.332 1.275,-0.369C1.317,-0.407 1.341,-0.459 1.341,-0.522C1.341,-0.654 1.237,-0.736 1.08,-0.736L0.08,-0.736L0.08,-0L0.206,-0L0.206,-0.305L1.08,-0.305C1.161,-0.305 1.215,-0.272 1.215,-0.215L1.215,-0L1.341,-0L1.341,-0.218Z" style="fill:rgb(46,53,64);fill-rule:nonzero;"/>
            </g>
            <g transform="matrix(32,0,0,32,236.23,236.779)">
                <rect x="0.08" y="-0.736" width="0.126" height="0.736" style="fill:rgb(46,53,64);fill-rule:nonzero;"/>
            </g>
            <g transform="matrix(32,0,0,32,245.414,236.779)">
                <path d="M0.08,-0L0.206,-0L0.206,-0.571L0.645,-0L0.775,-0L1.215,-0.572L1.215,-0L1.341,-0L1.341,-0.736L1.182,-0.736L0.711,-0.122L0.239,-0.736L0.079,-0.736L0.08,-0.735L0.08,-0Z" style="fill:rgb(46,53,64);fill-rule:nonzero;"/>
            </g>
            <g transform="matrix(32,0,0,32,290.918,236.779)">
                <path d="M0.08,-0L1.341,-0L1.341,-0.126L0.206,-0.126L0.206,-0.305L1.236,-0.305L1.236,-0.431L0.206,-0.431L0.206,-0.609L1.341,-0.609L1.341,-0.736L0.08,-0.736L0.08,-0Z" style="fill:rgb(46,53,64);fill-rule:nonzero;"/>
            </g>
            <g transform="matrix(32,0,0,32,353.542,236.779)">
                <path d="M0.053,-0.522C0.053,-0.391 0.157,-0.305 0.314,-0.305L1.053,-0.305C1.134,-0.305 1.188,-0.272 1.188,-0.215C1.188,-0.159 1.134,-0.126 1.053,-0.126L0.053,-0.126L0.053,-0L1.053,-0C1.21,-0 1.314,-0.086 1.314,-0.218C1.314,-0.349 1.21,-0.431 1.053,-0.431L0.314,-0.431C0.233,-0.431 0.179,-0.463 0.179,-0.52C0.179,-0.577 0.233,-0.609 0.314,-0.609L1.314,-0.609L1.314,-0.736L0.314,-0.736C0.157,-0.736 0.053,-0.654 0.053,-0.522Z" style="fill:rgb(255,145,71);fill-rule:nonzero;"/>
            </g>
            <g transform="matrix(32,0,0,32,397.286,236.779)">
                <path d="M0.206,-0.609L1.08,-0.609C1.161,-0.609 1.215,-0.577 1.215,-0.52C1.215,-0.463 1.161,-0.431 1.08,-0.431L0.206,-0.431L0.206,-0.609ZM0.08,-0L0.206,-0L0.206,-0.305L1.08,-0.305C1.237,-0.305 1.341,-0.391 1.341,-0.522C1.341,-0.654 1.237,-0.736 1.08,-0.736L0.08,-0.736L0.08,-0Z" style="fill:rgb(255,145,71);fill-rule:nonzero;"/>
            </g>
            <g transform="matrix(32,0,0,32,437.094,236.779)">
                <path d="M0.717,-0.735L0.718,-0.736L0.56,-0.736L0.56,-0.735L0.008,-0L0.166,-0L0.323,-0.21L0.954,-0.21L1.111,-0L1.269,-0L0.717,-0.735ZM0.638,-0.629L0.859,-0.336L0.418,-0.336L0.638,-0.629Z" style="fill:rgb(255,145,71);fill-rule:nonzero;"/>
            </g>
            <g transform="matrix(32,0,0,32,477.958,236.779)">
                <path d="M0.206,-0.431L0.206,-0.609L1.08,-0.609C1.161,-0.609 1.215,-0.577 1.215,-0.52C1.215,-0.463 1.161,-0.431 1.08,-0.431L0.206,-0.431ZM1.341,-0.218C1.341,-0.281 1.317,-0.332 1.275,-0.369C1.317,-0.407 1.341,-0.459 1.341,-0.522C1.341,-0.654 1.237,-0.736 1.08,-0.736L0.08,-0.736L0.08,-0L0.206,-0L0.206,-0.305L1.08,-0.305C1.161,-0.305 1.215,-0.272 1.215,-0.215L1.215,-0L1.341,-0L1.341,-0.218Z" style="fill:rgb(255,145,71);fill-rule:nonzero;"/>
            </g>
            <g transform="matrix(32,0,0,32,523.014,236.779)">
                <path d="M0.08,-0L1.341,-0L1.341,-0.126L0.206,-0.126L0.206,-0.305L1.236,-0.305L1.236,-0.431L0.206,-0.431L0.206,-0.609L1.341,-0.609L1.341,-0.736L0.08,-0.736L0.08,-0Z" style="fill:rgb(255,145,71);fill-rule:nonzero;"/>
            </g>
            <g transform="matrix(32,0,0,32,567.302,236.779)">
                <path d="M0.053,-0.522C0.053,-0.391 0.157,-0.305 0.314,-0.305L1.053,-0.305C1.134,-0.305 1.188,-0.272 1.188,-0.215C1.188,-0.159 1.134,-0.126 1.053,-0.126L0.053,-0.126L0.053,-0L1.053,-0C1.21,-0 1.314,-0.086 1.314,-0.218C1.314,-0.349 1.21,-0.431 1.053,-0.431L0.314,-0.431C0.233,-0.431 0.179,-0.463 0.179,-0.52C0.179,-0.577 0.233,-0.609 0.314,-0.609L1.314,-0.609L1.314,-0.736L0.314,-0.736C0.157,-0.736 0.053,-0.654 0.053,-0.522Z" style="fill:rgb(255,145,71);fill-rule:nonzero;"/>
            </g>
        </g>
    </g>
</svg>
